# Blender 3.3.1
# www.blender.org
mtllib lever-handle.mtl
o Cube
v -0.218447 1.704875 0.000000
v 0.154077 1.695002 0.215151
v 0.154077 1.695002 -0.215151
v -0.077043 2.351777 0.215151
v -0.077043 2.351777 -0.215151
v 0.295481 2.341904 0.000000
v -0.231815 1.794189 0.204621
v -0.044599 1.643151 0.126462
v -0.012851 1.788386 0.331085
v 0.174366 1.637349 0.000000
v -0.044599 1.643151 -0.126461
v -0.231815 1.794189 -0.204621
v -0.012851 1.788386 -0.331084
v 0.341443 1.779001 0.126462
v 0.341443 1.779001 -0.126462
v -0.264409 2.267777 0.126462
v -0.264409 2.267777 -0.126462
v 0.089885 2.258392 0.331085
v -0.097331 2.409430 0.000000
v 0.089885 2.258392 -0.331084
v 0.308849 2.252590 0.204621
v 0.121633 2.403628 0.126462
v 0.121633 2.403628 -0.126461
v 0.308849 2.252590 -0.204621
v -0.117993 0.020233 0.134238
v -0.108557 -0.051681 0.134238
v -0.108557 0.020233 0.144612
v -0.108557 1.881257 0.144612
v -0.108557 1.953170 0.134238
v -0.117993 1.881257 0.134238
v -0.108557 -0.051681 -0.134238
v -0.117993 0.020233 -0.134238
v -0.108557 0.020233 -0.144612
v -0.117993 1.881257 -0.134238
v -0.108557 1.953170 -0.134238
v -0.108557 1.881257 -0.144612
v 0.135630 -0.051681 0.134238
v 0.145066 0.020233 0.134238
v 0.135630 0.020233 0.144612
v 0.145066 1.881257 0.134238
v 0.135630 1.953170 0.134238
v 0.135630 1.881257 0.144612
v 0.135630 -0.051681 -0.134238
v 0.135630 0.020233 -0.144612
v 0.145066 0.020233 -0.134238
v 0.135630 1.881257 -0.144612
v 0.135630 1.953170 -0.134238
v 0.145066 1.881257 -0.134238
v -0.117993 0.020233 0.134238
v -0.108557 0.020233 0.144612
v -0.117993 0.020233 -0.134238
v -0.108557 0.020233 -0.144612
v 0.135630 0.020233 -0.144612
v 0.145066 0.020233 -0.134238
v 0.145066 0.020233 0.134238
v 0.135630 0.020233 0.144612
v -0.160261 2.010999 0.343604
v -0.160892 1.938182 0.341199
v -0.353222 2.123853 0.000000
v -0.357230 2.044960 0.000000
v -0.160261 2.010999 -0.343603
v -0.160892 1.938182 -0.341199
v 0.237926 2.108596 0.341199
v 0.237295 2.035780 0.343604
v 0.237927 2.108596 -0.341199
v 0.237295 2.035780 -0.343603
v 0.434264 2.001819 0.000000
v 0.430256 1.922926 0.000000
v -0.337040 1.872669 0.000100
v -0.351537 1.952635 0.000000
v -0.338408 2.012700 0.084625
v -0.305584 2.003812 0.204622
v -0.231832 2.049147 0.275748
v -0.309997 2.059217 0.195827
v -0.305584 2.003812 -0.204621
v -0.338408 2.012700 -0.084624
v -0.309997 2.059217 -0.195827
v -0.231832 2.049148 -0.275748
v 0.032385 1.995337 0.399916
v 0.141437 2.001974 0.372465
v 0.044649 2.051442 0.399916
v -0.064402 2.044805 0.372465
v 0.229858 1.930642 0.335551
v 0.220539 1.858122 0.321270
v -0.143505 2.188656 0.321270
v -0.152824 2.116137 0.335551
v -0.152824 2.116137 -0.335551
v -0.143505 2.188656 -0.321269
v 0.220539 1.858122 -0.321269
v 0.229858 1.930642 -0.335551
v 0.141437 2.001974 -0.372465
v 0.032385 1.995337 -0.399915
v -0.064402 2.044805 -0.372465
v 0.044649 2.051442 -0.399915
v 0.308866 1.997631 0.275748
v 0.387031 1.987561 0.195827
v 0.415442 2.034079 0.084625
v 0.382619 2.042966 0.204622
v 0.387031 1.987561 -0.195827
v 0.308866 1.997631 -0.275748
v 0.382619 2.042966 -0.204621
v 0.415442 2.034079 -0.084624
v 0.414074 2.174110 0.000100
v 0.428571 2.094144 0.000000
vn -0.0000 1.0000 -0.0000
vn 1.0000 -0.0000 -0.0000
vn -0.4455 -0.4908 0.7488
vn -1.0000 -0.0000 -0.0000
vn -0.0000 -0.0000 1.0000
vn -0.0000 -0.0000 -1.0000
vn -0.0000 -1.0000 -0.0000
vn -0.5128 -0.7986 0.3151
vn 0.1295 -0.9547 0.2680
vn -0.7228 0.3552 0.5928
vn -0.8882 -0.3126 -0.3367
vn -0.5128 -0.7986 -0.3151
vn 0.4969 -0.8254 0.2680
vn -0.3175 0.0947 0.9435
vn -0.8510 0.5251 -0.0000
vn -0.3175 0.0947 -0.9435
vn 0.8881 0.3125 0.3370
vn 0.7228 -0.3552 0.5928
vn -0.9790 -0.0604 0.1947
vn -0.7223 -0.2542 -0.6431
vn 0.3175 -0.0947 0.9435
vn 0.7228 -0.3552 -0.5928
vn 0.4455 0.4908 0.7488
vn 0.0487 0.8109 0.5831
vn -0.1295 0.9547 -0.2680
vn 0.7223 0.2542 -0.6431
vn -0.8010 -0.5660 -0.1947
vn 0.8009 0.5662 0.1948
vn 0.8510 -0.5251 -0.0000
vn 0.5128 0.7986 -0.3151
vn 0.3530 0.7363 -0.5773
vn 0.0487 0.8109 -0.5831
vn 0.3346 0.9424 -0.0000
vn 0.0265 0.9996 -0.0000
vn -0.1295 0.9547 0.2680
vn 0.5128 0.7986 0.3151
vn 0.3530 0.7363 0.5773
vn 0.3175 -0.0947 -0.9435
vn 0.8010 0.5660 -0.1947
vn 0.8882 0.3126 -0.3367
vn 0.9069 -0.2975 -0.2984
vn 0.9790 0.0604 -0.1947
vn 0.1407 -0.3400 -0.9298
vn 0.2067 0.2678 -0.9410
vn 0.4455 0.4908 -0.7488
vn 0.5458 -0.6017 -0.5831
vn -0.1407 0.3400 -0.9298
vn -0.4969 0.8254 -0.2680
vn -0.6467 0.7628 -0.0000
vn -0.4969 0.8254 0.2680
vn -0.5458 0.6017 -0.5831
vn 0.1407 -0.3400 0.9298
vn 0.6547 -0.1037 0.7488
vn 0.7223 0.2542 0.6431
vn -0.5458 0.6017 0.5831
vn 0.9790 0.0604 0.1947
vn 0.6547 -0.1037 -0.7488
vn 0.2096 -0.5918 -0.7784
vn -0.6547 0.1037 -0.7488
vn -0.2096 0.5918 -0.7784
vn -0.1407 0.3400 0.9298
vn -0.9069 0.2975 0.2984
vn -0.2096 0.5918 0.7784
vn -0.7228 0.3552 -0.5928
vn -0.2067 -0.2678 0.9410
vn 0.2067 0.2678 0.9410
vn 0.2096 -0.5918 0.7784
vn 0.5458 -0.6017 0.5831
vn 0.9069 -0.2975 0.2984
vn 0.6467 -0.7628 -0.0000
vn 0.4969 -0.8254 -0.2680
vn -0.0487 -0.8109 -0.5831
vn -0.3530 -0.7363 -0.5773
vn -0.2067 -0.2678 -0.9410
vn -0.4455 -0.4908 -0.7488
vn -0.8881 -0.3125 0.3370
vn -0.9069 0.2975 -0.2984
vn -0.9790 -0.0604 -0.1947
vn -0.8009 -0.5662 0.1948
vn -0.6547 0.1037 0.7488
vn 0.1295 -0.9547 -0.2680
vn -0.0265 -0.9996 -0.0000
vn -0.3346 -0.9424 -0.0000
vn -0.7223 -0.2542 0.6431
vn -0.3530 -0.7363 0.5773
vn -0.0487 -0.8109 0.5831
vn -0.7363 -0.0966 0.6697
vn -0.7363 0.0966 0.6697
vn -0.7363 -0.0966 -0.6697
vn -0.7363 0.0966 -0.6697
vn 0.7363 -0.0966 0.6697
vn 0.7363 0.0966 0.6697
vn 0.7363 -0.0966 -0.6697
vn 0.7363 0.0966 -0.6697
vn -0.8740 0.0075 0.4859
vn -0.8740 0.0075 -0.4859
vn 0.8740 -0.0075 0.4859
vn 0.8740 -0.0075 -0.4859
vn -0.9915 -0.1301 -0.0000
vn -0.7398 -0.0000 0.6729
vn -0.9915 0.1301 -0.0000
vn -0.6917 -0.0000 -0.7222
vn -0.0000 -0.1428 -0.9898
vn -0.0000 0.1428 -0.9898
vn 0.6917 -0.0000 -0.7222
vn 0.9915 -0.1301 -0.0000
vn 0.9915 0.1301 -0.0000
vn 0.6917 -0.0000 0.7222
vn -0.0000 -0.1428 0.9898
vn -0.0000 0.1428 0.9898
vn -0.6917 -0.0000 0.7222
vn -0.7398 -0.0000 -0.6729
vn 0.7398 -0.0000 -0.6729
vn 0.7398 -0.0000 0.6729
vn -0.9718 0.0464 0.2310
vn -0.6907 -0.0151 -0.7230
vn -0.2824 -0.0256 0.9590
vn 0.2824 0.0256 -0.9590
vn 0.6907 0.0151 0.7230
vn 0.9718 -0.0464 -0.2310
vn -0.6907 -0.0151 0.7230
vn -0.9718 0.0464 -0.2310
vn 0.2824 0.0256 0.9590
vn -0.2824 -0.0256 -0.9590
vn 0.9718 -0.0464 0.2310
vn 0.6907 0.0151 -0.7230
vn 0.9530 0.1636 -0.2549
vn 0.9531 0.1631 0.2548
vn 0.6911 -0.2121 -0.6910
vn -0.2422 0.2044 -0.9485
vn -0.2422 0.2044 0.9485
vn 0.6911 -0.2121 0.6910
vn 0.2422 -0.2044 -0.9485
vn -0.6911 0.2121 -0.6910
vn -0.6911 0.2121 0.6910
vn 0.2422 -0.2044 0.9485
vn -0.9530 -0.1636 -0.2549
vn -0.9531 -0.1631 0.2548
vt 0.181819 0.000000
vt 0.545455 0.000000
vt 0.727273 0.000000
vt 0.909091 0.000000
vt 0.363637 0.000000
vt 0.272728 0.157461
vt 0.454546 0.157461
vt 0.909091 0.314921
vt 0.000000 0.314921
vt 0.727273 0.314921
vt 0.272728 0.472382
vt 0.636364 0.472382
vt 0.818182 0.472382
vt 0.090910 0.472382
vt 0.454546 0.472382
vt 0.954545 0.078731
vt 0.136365 0.078731
vt 0.318182 0.078731
vt 0.227273 0.078731
vt 0.181819 0.157461
vt 0.363637 0.157461
vt 0.500000 0.078731
vt 0.409092 0.078731
vt 0.681818 0.078731
vt 0.590909 0.078731
vt 0.545455 0.157461
vt 0.318182 0.236191
vt 0.409092 0.236191
vt 0.863636 0.236191
vt 0.772727 0.236191
vt 0.090910 0.314921
vt 0.818182 0.314921
vt 0.636364 0.314921
vt 0.136365 0.393651
vt 0.227273 0.393651
vt 0.863636 0.393651
vt 0.045455 0.393651
vt 0.681818 0.393651
vt 0.772727 0.393651
vt 0.500000 0.393651
vt 0.590909 0.393651
vt 0.125000 0.741033
vt 0.383967 0.008967
vt 0.133967 0.741033
vt 0.383967 0.991033
vt 0.133967 0.750000
vt 0.383967 0.000000
vt 0.616033 0.000000
vt 0.616033 0.991033
vt 0.866033 0.741033
vt 0.625000 0.008967
vt 0.625000 0.991033
vt 0.616033 0.008967
vt 0.133967 0.508967
vt 0.125000 0.508967
vt 0.383967 0.241033
vt 0.383967 0.258967
vt 0.133967 0.500000
vt 0.616033 0.241033
vt 0.866033 0.508967
vt 0.625000 0.241033
vt 0.625000 0.258967
vt 0.616033 0.250000
vt 0.616033 0.258967
vt 0.366033 0.741033
vt 0.375000 0.741033
vt 0.383967 0.741033
vt 0.383967 0.758967
vt 0.366033 0.750000
vt 0.616033 0.750000
vt 0.616033 0.741033
vt 0.633967 0.741033
vt 0.625000 0.758967
vt 0.616033 0.758967
vt 0.366033 0.508967
vt 0.366033 0.500000
vt 0.383967 0.491033
vt 0.375000 0.508967
vt 0.383967 0.508967
vt 0.616033 0.491033
vt 0.625000 0.491033
vt 0.633967 0.508967
vt 0.616033 0.500000
vt 0.616033 0.508967
vt 0.383967 0.008967
vt 0.383967 0.991033
vt 0.383967 0.000000
vt 0.383967 0.241033
vt 0.383967 0.258967
vt 0.383967 0.491033
vt 0.383967 0.508967
vt 0.383967 0.741033
vt 0.383967 0.758967
vt 0.078848 0.178353
vt 0.987938 0.178353
vt 0.096745 0.154059
vt 0.098249 0.152004
vt 1.001242 0.148288
vt 0.818182 0.164017
vt 0.817096 0.166096
vt 0.819268 0.166096
vt 0.831584 0.134248
vt 0.804780 0.134248
vt 0.648426 0.178353
vt 0.630529 0.154059
vt 0.635122 0.148288
vt 0.629025 0.152004
vt 0.175984 0.318323
vt 0.180577 0.324094
vt 0.174479 0.320378
vt 0.193881 0.294029
vt 0.551290 0.318323
vt 0.552794 0.320378
vt 0.546697 0.324094
vt 0.533393 0.294029
vt 0.377039 0.338134
vt 0.350235 0.338134
vt 0.363637 0.308365
vt 0.362551 0.306286
vt 0.364723 0.306286
vt 0.769060 0.072302
vt 0.867353 0.072370
vt 0.767365 0.069603
vt 0.869031 0.069697
vt 0.785982 0.101688
vt 0.850382 0.101688
vt 0.869181 0.134248
vt 0.914609 0.147904
vt 0.944962 0.178330
vt 0.903976 0.166320
vt 0.721755 0.147904
vt 0.767183 0.134248
vt 0.732388 0.166320
vt 0.691402 0.178330
vt 0.141790 0.226793
vt 0.172428 0.256820
vt 0.130939 0.245589
vt 0.100301 0.215562
vt 0.215363 0.256821
vt 0.231283 0.229819
vt 0.231161 0.230024
vt 0.232603 0.227846
vt 0.232715 0.227325
vt 0.950658 0.242358
vt 0.041446 0.242563
vt 0.040013 0.245057
vt 0.949216 0.244536
vt 0.057366 0.215561
vt 0.966456 0.215561
vt 0.669908 0.215561
vt 0.685706 0.242358
vt 0.685828 0.242563
vt 0.687260 0.245057
vt 0.687148 0.244536
vt 0.496113 0.230024
vt 0.495991 0.229819
vt 0.494671 0.227846
vt 0.494559 0.227325
vt 0.511911 0.256821
vt 0.554846 0.256820
vt 0.585484 0.226793
vt 0.626973 0.215562
vt 0.596335 0.245589
vt 0.236857 0.294052
vt 0.277843 0.306062
vt 0.312638 0.338134
vt 0.267210 0.324478
vt 0.449431 0.306062
vt 0.490417 0.294052
vt 0.460064 0.324478
vt 0.414636 0.338134
vt 0.314466 0.400012
vt 0.412759 0.400080
vt 0.414454 0.402779
vt 0.312788 0.402685
vt 0.395837 0.370694
vt 0.331437 0.370694
s 0
f 47/82/1 35/60/1 29/50/1 41/72/1
f 45/79/2 54/91/2 55/92/2 38/67/2
f 7/17/3 9/20/3 58/96/3
f 49/85/4 30/53/4 34/59/4 51/88/4
f 39/68/5 56/93/5 50/86/5 27/45/5
f 33/57/6 52/89/6 53/90/6 44/77/6
f 56/93/5 42/74/5 28/49/5 50/86/5
f 54/91/2 48/84/2 40/71/2 55/92/2
f 52/89/6 36/64/6 46/80/6 53/90/6
f 31/54/7 43/75/7 37/65/7 26/44/7
f 1/1/8 8/19/8 7/17/8
f 2/6/9 8/18/9 10/21/9
f 16/29/10 74/130/10 85/147/10
f 12/24/11 69/123/11 75/131/11
f 1/2/12 12/25/12 11/22/12
f 2/6/13 10/21/13 14/27/13
f 57/94/14 82/138/14 86/148/14
f 59/99/15 16/29/15 17/30/15
f 61/104/16 87/150/16 93/162/16
f 21/35/17 98/167/17 103/175/17
f 84/142/18 14/27/18 96/165/18
f 70/126/19 71/127/19 60/102/19
f 12/24/20 75/131/20 62/106/20
f 80/136/21 83/139/21 64/111/21
f 15/28/22 89/157/22 99/168/22
f 18/31/23 63/108/23 21/34/23
f 4/9/24 18/31/24 22/37/24
f 5/10/25 19/32/25 23/39/25
f 101/170/26 65/114/26 24/40/26
f 1/3/27 69/121/27 12/24/27
f 21/35/28 103/172/28 6/11/28
f 14/27/29 15/28/29 68/118/29
f 24/41/30 23/38/30 6/12/30
f 24/41/31 20/33/31 23/38/31
f 20/33/32 5/10/32 23/38/32
f 23/39/33 22/36/33 6/13/33
f 23/39/34 19/32/34 22/36/34
f 19/32/35 4/8/35 22/36/35
f 22/37/36 21/34/36 6/14/36
f 22/37/37 18/31/37 21/34/37
f 90/159/38 91/160/38 66/115/38
f 103/173/39 24/40/39 6/15/39
f 103/174/40 101/170/40 24/40/40
f 15/28/41 99/168/41 68/119/41
f 67/116/42 102/171/42 104/176/42
f 89/158/43 13/26/43 92/161/43
f 94/163/44 20/33/44 65/113/44
f 65/112/45 20/33/45 24/41/45
f 3/7/46 89/155/46 15/28/46
f 94/163/47 88/153/47 20/33/47
f 17/30/48 19/32/48 5/10/48
f 17/30/49 16/29/49 19/32/49
f 16/29/50 4/8/50 19/32/50
f 88/151/51 17/30/51 5/10/51
f 79/135/52 9/20/52 84/143/52
f 83/139/53 95/164/53 64/111/53
f 63/109/54 98/167/54 21/35/54
f 16/29/55 85/144/55 4/8/55
f 97/166/56 67/117/56 104/177/56
f 90/159/57 66/115/57 100/169/57
f 3/7/58 13/26/58 89/156/58
f 61/104/59 78/134/59 87/150/59
f 88/152/60 5/10/60 20/33/60
f 85/146/61 81/137/61 18/31/61
f 59/100/62 74/130/62 16/29/62
f 85/145/63 18/31/63 4/9/63
f 88/154/64 77/133/64 17/30/64
f 58/97/65 9/20/65 79/135/65
f 81/137/66 63/110/66 18/31/66
f 9/20/67 2/6/67 84/140/67
f 2/6/68 14/27/68 84/141/68
f 14/27/69 68/120/69 96/165/69
f 14/27/70 10/21/70 15/28/70
f 10/21/71 3/7/71 15/28/71
f 11/22/72 13/26/72 3/7/72
f 11/22/73 12/25/73 13/26/73
f 13/26/74 62/107/74 92/161/74
f 12/25/75 62/105/75 13/26/75
f 69/124/76 7/16/76 72/128/76
f 77/133/77 59/101/77 17/30/77
f 70/125/78 60/103/78 76/132/78
f 1/4/79 7/16/79 69/122/79
f 73/129/80 57/95/80 86/149/80
f 10/21/81 11/23/81 3/7/81
f 10/21/82 8/18/82 11/23/82
f 8/18/83 1/5/83 11/23/83
f 7/16/84 58/98/84 72/128/84
f 7/17/85 8/19/85 9/20/85
f 8/19/86 2/6/86 9/20/86
f 25/42/87 26/44/87 27/46/87
f 28/48/88 29/51/88 30/53/88
f 31/54/89 32/55/89 33/58/89
f 34/59/90 35/61/90 36/63/90
f 37/65/91 38/66/91 39/69/91
f 40/70/92 41/73/92 42/74/92
f 43/75/93 44/76/93 45/78/93
f 46/80/94 47/81/94 48/83/94
f 71/127/95 72/128/95 73/129/95 74/130/95
f 75/131/96 76/132/96 77/133/96 78/134/96
f 79/135/5 80/136/5 81/137/5 82/138/5
f 91/160/6 92/161/6 93/162/6 94/163/6
f 95/164/97 96/165/97 97/166/97 98/167/97
f 99/168/98 100/169/98 101/170/98 102/171/98
f 31/54/99 26/44/99 25/42/99 32/55/99
f 50/87/100 28/48/100 30/53/100 49/85/100
f 29/51/101 35/61/101 34/59/101 30/53/101
f 52/89/102 33/57/102 32/56/102 51/88/102
f 43/75/103 31/54/103 33/58/103 44/76/103
f 35/62/104 47/81/104 46/80/104 36/64/104
f 54/91/105 45/79/105 44/77/105 53/90/105
f 37/65/106 43/75/106 45/79/106 38/67/106
f 47/82/107 41/72/107 40/71/107 48/84/107
f 56/93/108 39/68/108 38/67/108 55/92/108
f 26/44/109 37/65/109 39/69/109 27/46/109
f 41/73/110 29/52/110 28/49/110 42/74/110
f 27/47/111 50/87/111 49/85/111 25/43/111
f 36/64/112 52/89/112 51/88/112 34/59/112
f 48/84/113 54/91/113 53/90/113 46/80/113
f 42/74/114 56/93/114 55/92/114 40/71/114
f 74/130/115 59/100/115 60/102/115 71/127/115
f 78/134/116 61/104/116 62/106/116 75/131/116
f 82/138/117 57/94/117 58/97/117 79/135/117
f 94/163/118 65/113/118 66/115/118 91/160/118
f 98/167/119 63/109/119 64/111/119 95/164/119
f 102/171/120 67/116/120 68/119/120 99/168/120
f 57/95/121 73/129/121 72/128/121 58/98/121
f 59/101/122 77/133/122 76/132/122 60/103/122
f 63/110/123 81/137/123 80/136/123 64/111/123
f 61/104/124 93/162/124 92/161/124 62/107/124
f 67/117/125 97/166/125 96/165/125 68/120/125
f 65/114/126 101/170/126 100/169/126 66/115/126
f 104/176/127 102/171/127 101/170/127 103/174/127
f 103/175/128 98/167/128 97/166/128 104/177/128
f 99/168/129 89/157/129 90/159/129 100/169/129
f 93/162/130 87/150/130 88/153/130 94/163/130
f 86/148/131 82/138/131 81/137/131 85/146/131
f 84/142/132 96/165/132 95/164/132 83/139/132
f 89/158/133 92/161/133 91/160/133 90/159/133
f 87/150/134 78/134/134 77/133/134 88/154/134
f 85/147/135 74/130/135 73/129/135 86/149/135
f 79/135/136 84/143/136 83/139/136 80/136/136
f 75/131/137 69/123/137 70/125/137 76/132/137
f 69/124/138 72/128/138 71/127/138 70/126/138
f 25/43/4 49/85/4 51/88/4 32/56/4
