# Blender v3.1.2 OBJ File: 'tree-leaves.blend'
# www.blender.org
mtllib tree-leaves.mtl
o Icosphere_Icosphere.002
v 0.228425 2.375116 -0.082376
v 1.246292 3.197555 0.520278
v -0.251120 3.083352 0.836893
v -0.874038 2.856405 -0.092423
v -0.267176 2.818670 -1.037760
v 1.111495 2.970500 -0.587500
v 0.507392 4.365858 0.841201
v -0.502204 4.073173 0.335668
v -0.648115 3.732430 -0.689364
v 0.526244 3.809741 -0.954755
v 1.073999 4.033549 -0.010092
v 0.042032 4.765375 -0.067545
v 0.002543 2.509380 0.477725
v 0.452930 2.441338 0.262568
v 0.672845 3.228465 0.737389
v 1.155893 3.046000 -0.030887
v 0.844899 2.718528 -0.360160
v -0.584871 2.462407 -0.042915
v -0.742656 2.708985 0.427360
v 0.080675 2.493222 -0.620520
v -0.620320 2.780096 -0.515914
v 0.604487 2.933548 -0.897864
v 1.771737 3.655637 0.300177
v 1.387092 3.522497 -0.351520
v 0.005058 3.577548 0.938823
v 0.859183 3.685997 0.767364
v -0.850389 3.534948 0.169039
v -0.972544 3.240784 0.888729
v -0.586098 3.351452 -1.180590
v -1.078148 3.375358 -0.412828
v 0.919153 3.395010 -0.915741
v 0.284293 3.408588 -1.045593
v 1.237761 4.314302 0.474642
v -0.275320 4.040715 0.716827
v -0.703302 3.991059 -0.138293
v -0.097305 3.885865 -1.054479
v 0.736919 3.849300 -0.652862
v 0.288177 4.958165 0.476845
v 1.121305 4.709949 -0.171831
v -0.286454 4.650691 0.157643
v -0.138272 4.381255 -0.516932
v 0.731572 4.706771 -0.790981
vt 0.181819 0.000000
vt 0.227273 0.078731
vt 0.136365 0.078731
vt 0.272728 0.157461
vt 0.318182 0.078731
vt 0.363637 0.157461
vt 0.909091 0.000000
vt 0.954545 0.078731
vt 0.863636 0.078731
vt 0.727273 0.000000
vt 0.772727 0.078731
vt 0.681818 0.078731
vt 0.545455 0.000000
vt 0.590909 0.078731
vt 0.500000 0.078731
vt 0.318182 0.236191
vt 0.090910 0.157461
vt 0.181819 0.157461
vt 0.136365 0.236191
vt 0.818182 0.157461
vt 0.909091 0.157461
vt 0.863636 0.236191
vt 0.636364 0.157461
vt 0.727273 0.157461
vt 0.681818 0.236191
vt 0.454546 0.157461
vt 0.545455 0.157461
vt 0.500000 0.236191
vt 0.227273 0.236191
vt 0.045455 0.236191
vt 0.772727 0.236191
vt 0.590909 0.236191
vt 0.409092 0.236191
vt 0.181819 0.314921
vt 0.272728 0.314921
vt 0.227273 0.393651
vt 0.000000 0.314921
vt 0.090910 0.314921
vt 0.045455 0.393651
vt 0.727273 0.314921
vt 0.818182 0.314921
vt 0.772727 0.393651
vt 0.545455 0.314921
vt 0.636364 0.314921
vt 0.590909 0.393651
vt 0.363637 0.314921
vt 0.454546 0.314921
vt 0.409092 0.393651
vt 0.500000 0.393651
vt 0.454546 0.472382
vt 0.681818 0.393651
vt 0.636364 0.472382
vt 0.863636 0.393651
vt 0.818182 0.472382
vt 0.909091 0.314921
vt 0.136365 0.393651
vt 0.090910 0.472382
vt 0.318182 0.393651
vt 0.272728 0.472382
vt 0.954545 0.236191
vt 1.000000 0.157461
vt 0.409092 0.078731
vt 0.363637 0.000000
vn -0.0442 -0.9754 0.2160
vn 0.6712 -0.7356 0.0922
vn -0.0953 -0.9761 0.1956
vn -0.1137 -0.9765 -0.1831
vn 0.3609 -0.8852 -0.2934
vn 0.6757 -0.7316 0.0904
vn 0.1451 -0.2715 0.9515
vn -0.9716 -0.0548 0.2301
vn -0.6782 -0.5397 -0.4988
vn 0.5039 -0.3738 -0.7787
vn 0.4514 -0.0913 0.8876
vn 0.0236 -0.2136 0.9766
vn -0.9132 -0.1184 0.3899
vn 0.1617 -0.1641 -0.9731
vn 0.7774 -0.1245 -0.6166
vn 0.3969 0.5830 0.7089
vn -0.7577 0.4335 0.4879
vn -0.6822 0.6332 -0.3655
vn 0.1729 0.1385 -0.9752
vn 0.8922 -0.1631 -0.4211
vn 0.0479 0.9982 -0.0352
vn 0.8438 -0.0802 -0.5307
vn 0.8223 -0.0855 -0.5626
vn -0.4359 0.7630 -0.4773
vn -0.4385 0.6440 -0.6269
vn -0.5536 0.5909 -0.5868
vn -0.5389 0.7348 -0.4119
vn -0.6863 0.6108 -0.3947
vn -0.8620 0.4127 0.2942
vn -0.4080 0.9029 -0.1353
vn -0.6105 0.5291 0.5893
vn -0.3078 0.4132 0.8570
vn 0.0154 0.9403 -0.3400
vn 0.5207 0.7667 0.3754
vn 0.9597 -0.1271 -0.2506
vn 0.5618 0.6692 -0.4864
vn 0.5637 0.5713 -0.5966
vn 0.6431 0.5601 -0.5222
vn 0.1709 0.1184 -0.9781
vn 0.1462 0.0986 -0.9843
vn -0.5437 0.6286 -0.5561
vn -0.7215 0.5962 -0.3521
vn -0.8736 0.4323 0.2234
vn -0.8435 0.4595 0.2783
vn -0.6322 0.6437 0.4312
vn -0.1655 0.3430 0.9246
vn -0.2638 0.2823 0.9223
vn 0.4520 0.1382 0.8812
vn 0.4551 0.1358 0.8800
vn 0.5735 0.6098 -0.5470
vn 0.2014 0.0992 -0.9745
vn 0.1940 -0.1697 -0.9662
vn 0.1790 -0.1802 -0.9672
vn -0.7223 0.4993 -0.4785
vn -0.7407 -0.4901 -0.4595
vn -0.7675 -0.5271 -0.3648
vn -0.8474 0.5261 0.0712
vn -0.9493 -0.1997 -0.2428
vn -0.0949 -0.6754 0.7313
vn 0.1973 -0.0044 0.9803
vn 0.2129 -0.1499 0.9655
vn 0.3377 -0.1978 0.9202
vn 0.5730 0.6681 -0.4747
vn 0.7478 -0.5801 -0.3229
vn 0.8966 -0.4427 -0.0115
vn 0.3518 -0.8043 -0.4789
vn 0.3956 -0.7780 -0.4880
vn 0.2026 -0.6830 -0.7017
vn -0.3993 -0.8541 -0.3333
vn -0.3916 -0.7772 -0.4926
vn -0.7383 -0.5842 -0.3371
vn -0.8078 -0.5882 0.0374
vn -0.2633 -0.8879 0.3772
vn -0.2093 -0.5835 0.7847
vn 0.7041 -0.7089 0.0400
vn 0.6718 -0.7345 0.0959
vn 0.4424 -0.8891 -0.1173
vn 0.1670 -0.4689 0.8673
vn 0.2899 -0.5524 0.7815
vn 0.2692 -0.5515 0.7895
usemtl None
s off
f 1/1/1 14/2/1 13/3/1
f 2/4/2 14/5/2 16/6/2
f 1/7/3 13/8/3 18/9/3
f 1/10/4 18/11/4 20/12/4
f 1/13/5 20/14/5 17/15/5
f 2/4/6 16/6/6 23/16/6
f 3/17/7 15/18/7 25/19/7
f 4/20/8 19/21/8 27/22/8
f 5/23/9 21/24/9 29/25/9
f 6/26/10 22/27/10 31/28/10
f 2/4/11 23/16/11 26/29/11
f 3/17/12 25/19/12 28/30/12
f 4/20/13 27/22/13 30/31/13
f 5/23/14 29/25/14 32/32/14
f 6/26/15 31/28/15 24/33/15
f 7/34/16 33/35/16 38/36/16
f 8/37/17 34/38/17 40/39/17
f 9/40/18 35/41/18 41/42/18
f 10/43/19 36/44/19 42/45/19
f 11/46/20 37/47/20 39/48/20
f 39/48/21 42/49/21 12/50/21
f 39/48/22 37/47/22 42/49/22
f 37/47/23 10/43/23 42/49/23
f 42/45/24 41/51/24 12/52/24
f 42/45/25 36/44/25 41/51/25
f 36/44/26 9/40/26 41/51/26
f 41/42/27 40/53/27 12/54/27
f 41/42/28 35/41/28 40/53/28
f 35/41/29 8/55/29 40/53/29
f 40/39/30 38/56/30 12/57/30
f 40/39/31 34/38/31 38/56/31
f 34/38/32 7/34/32 38/56/32
f 38/36/33 39/58/33 12/59/33
f 38/36/34 33/35/34 39/58/34
f 33/35/35 11/46/35 39/58/35
f 24/33/36 37/47/36 11/46/36
f 24/33/37 31/28/37 37/47/37
f 31/28/38 10/43/38 37/47/38
f 32/32/39 36/44/39 10/43/39
f 32/32/40 29/25/40 36/44/40
f 29/25/41 9/40/41 36/44/41
f 30/31/42 35/41/42 9/40/42
f 30/31/43 27/22/43 35/41/43
f 27/22/44 8/55/44 35/41/44
f 28/30/45 34/38/45 8/37/45
f 28/30/46 25/19/46 34/38/46
f 25/19/47 7/34/47 34/38/47
f 26/29/48 33/35/48 7/34/48
f 26/29/49 23/16/49 33/35/49
f 23/16/50 11/46/50 33/35/50
f 31/28/51 32/32/51 10/43/51
f 31/28/52 22/27/52 32/32/52
f 22/27/53 5/23/53 32/32/53
f 29/25/54 30/31/54 9/40/54
f 29/25/55 21/24/55 30/31/55
f 21/24/56 4/20/56 30/31/56
f 27/22/57 28/60/57 8/55/57
f 27/22/58 19/21/58 28/60/58
f 19/21/59 3/61/59 28/60/59
f 25/19/60 26/29/60 7/34/60
f 25/19/61 15/18/61 26/29/61
f 15/18/62 2/4/62 26/29/62
f 23/16/63 24/33/63 11/46/63
f 23/16/64 16/6/64 24/33/64
f 16/6/65 6/26/65 24/33/65
f 17/15/66 22/27/66 6/26/66
f 17/15/67 20/14/67 22/27/67
f 20/14/68 5/23/68 22/27/68
f 20/12/69 21/24/69 5/23/69
f 20/12/70 18/11/70 21/24/70
f 18/11/71 4/20/71 21/24/71
f 18/9/72 19/21/72 4/20/72
f 18/9/73 13/8/73 19/21/73
f 13/8/74 3/61/74 19/21/74
f 16/6/75 17/62/75 6/26/75
f 16/6/76 14/5/76 17/62/76
f 14/5/77 1/63/77 17/62/77
f 13/3/78 15/18/78 3/17/78
f 13/3/79 14/2/79 15/18/79
f 14/2/80 2/4/80 15/18/80
