# Blender v3.1.2 OBJ File: 'tree2-leaves.blend'
# www.blender.org
mtllib tree2-leaves.mtl
o Icosphere_Icosphere.002
v 0.332621 -1.136236 0.278163
v 0.875380 -0.174285 0.682174
v -0.652142 -0.483953 0.947960
v -1.139386 -0.598264 0.100062
v -0.258012 -0.544988 -0.918582
v 0.958648 -0.420060 -0.380577
v -0.051111 0.689093 1.225709
v -1.398838 0.191429 0.893110
v -1.874316 0.398496 -0.119199
v -0.052866 0.263264 -1.188799
v 1.066388 0.955709 0.216850
v -0.445556 1.507485 0.295210
v -0.481929 -0.939916 0.789104
v 0.630863 -1.010884 0.270569
v 0.195161 -0.304102 0.975926
v 1.103280 -0.559002 0.185287
v 0.465508 -0.808230 -0.136910
v -0.504280 -1.127471 0.311779
v -1.143020 -0.609625 0.705759
v -0.084533 -0.959393 -0.641644
v -0.957421 -0.309384 -0.647182
v 0.645828 -0.644874 -0.851063
v 1.068605 0.306653 0.956846
v 1.235452 0.306470 -0.419078
v -0.481251 -0.264652 1.126411
v 0.414373 -0.204993 1.148258
v -1.782606 -0.423147 0.447719
v -1.439266 -0.304146 1.082246
v -1.485141 0.031588 -0.893955
v -1.550570 -0.214874 -0.265983
v 0.589227 0.043457 -0.746738
v -0.083798 -0.183723 -0.892399
v 0.698434 0.733512 0.644484
v -0.958732 0.615862 1.095604
v -1.794306 0.548407 0.201548
v -1.096525 0.344469 -0.648966
v 0.686564 0.835316 -0.636663
v -0.423017 1.247400 0.559147
v 0.312517 1.023555 0.413699
v -1.551470 0.844073 0.888143
v -1.475303 0.637267 -0.148720
v -0.559167 0.798089 -0.519746
vt 0.181819 0.000000
vt 0.227273 0.078731
vt 0.136365 0.078731
vt 0.272728 0.157461
vt 0.318182 0.078731
vt 0.363637 0.157461
vt 0.909091 0.000000
vt 0.954545 0.078731
vt 0.863636 0.078731
vt 0.727273 0.000000
vt 0.772727 0.078731
vt 0.681818 0.078731
vt 0.545455 0.000000
vt 0.590909 0.078731
vt 0.500000 0.078731
vt 0.318182 0.236191
vt 0.090910 0.157461
vt 0.181819 0.157461
vt 0.136365 0.236191
vt 0.818182 0.157461
vt 0.909091 0.157461
vt 0.863636 0.236191
vt 0.636364 0.157461
vt 0.727273 0.157461
vt 0.681818 0.236191
vt 0.454546 0.157461
vt 0.545455 0.157461
vt 0.500000 0.236191
vt 0.227273 0.236191
vt 0.045455 0.236191
vt 0.772727 0.236191
vt 0.590909 0.236191
vt 0.409092 0.236191
vt 0.181819 0.314921
vt 0.272728 0.314921
vt 0.227273 0.393651
vt 0.000000 0.314921
vt 0.090910 0.314921
vt 0.045455 0.393651
vt 0.727273 0.314921
vt 0.818182 0.314921
vt 0.772727 0.393651
vt 0.545455 0.314921
vt 0.636364 0.314921
vt 0.590909 0.393651
vt 0.363637 0.314921
vt 0.454546 0.314921
vt 0.409092 0.393651
vt 0.500000 0.393651
vt 0.454546 0.472382
vt 0.681818 0.393651
vt 0.636364 0.472382
vt 0.863636 0.393651
vt 0.818182 0.472382
vt 0.909091 0.314921
vt 0.136365 0.393651
vt 0.090910 0.472382
vt 0.318182 0.393651
vt 0.272728 0.472382
vt 0.954545 0.236191
vt 1.000000 0.157461
vt 0.409092 0.078731
vt 0.363637 0.000000
vn 0.2889 -0.6444 0.7081
vn 0.5848 -0.4893 0.6470
vn 0.0049 -0.9308 0.3655
vn -0.0176 -0.9833 -0.1811
vn 0.5619 -0.7270 -0.3946
vn 0.4811 -0.5725 0.6639
vn 0.1208 -0.6815 0.7218
vn -0.2725 -0.9619 -0.0197
vn -0.4094 -0.8580 -0.3101
vn 0.7868 0.1552 -0.5973
vn 0.6054 -0.5640 0.5616
vn -0.0101 -0.6264 0.7795
vn -0.4281 -0.8206 -0.3786
vn 0.0114 0.0668 -0.9977
vn 0.5149 -0.2398 -0.8230
vn 0.3321 0.8061 0.4899
vn -0.3553 -0.0760 0.9316
vn -0.5102 0.8209 -0.2564
vn -0.3305 0.5992 -0.7291
vn 0.0470 0.9860 -0.1600
vn 0.4920 0.6215 -0.6096
vn -0.0474 0.9801 -0.1925
vn -0.0843 0.7463 -0.6603
vn -0.3635 0.7272 -0.5823
vn -0.3820 0.6419 -0.6649
vn -0.4159 0.6117 -0.6729
vn -0.5807 0.7892 -0.2001
vn -0.4658 0.8606 -0.2059
vn -0.8915 -0.2054 0.4038
vn -0.0485 0.7094 0.7032
vn -0.0131 0.6538 0.7566
vn -0.1555 0.7128 0.6839
vn 0.3363 0.6850 0.6463
vn 0.3405 0.8196 0.4607
vn 0.2247 0.7720 0.5945
vn 0.7133 0.5763 -0.3987
vn 0.4273 0.0727 -0.9012
vn 0.5764 0.0426 -0.8161
vn -0.4327 -0.4772 -0.7648
vn 0.0849 0.5467 -0.8330
vn -0.3049 0.7924 -0.5284
vn -0.7560 -0.5001 0.4223
vn -0.9381 -0.0956 -0.3329
vn -0.8314 0.1271 0.5410
vn -0.6332 0.3205 0.7045
vn -0.0465 0.0098 0.9989
vn -0.1386 -0.0405 0.9895
vn 0.5863 0.2382 0.7743
vn -0.1423 0.5012 0.8535
vn 0.2974 0.7182 0.6291
vn 0.3472 -0.5348 -0.7703
vn 0.1567 0.1606 -0.9745
vn 0.0782 0.0345 -0.9963
vn -0.8797 -0.4044 -0.2504
vn -0.3746 -0.8492 -0.3723
vn -0.3963 -0.8198 -0.4134
vn -0.8727 0.2346 0.4282
vn -0.3948 -0.8404 0.3712
vn -0.0837 -0.8050 0.5873
vn -0.0179 -0.0955 0.9953
vn 0.0484 -0.8912 0.4510
vn 0.2671 -0.9422 0.2021
vn 0.9831 0.1392 0.1192
vn 0.9905 -0.0674 0.1201
vn 0.8822 -0.3526 -0.3121
vn 0.6100 -0.7920 -0.0271
vn 0.3636 -0.9239 -0.1195
vn 0.0007 -0.5554 -0.8316
vn -0.4565 -0.6185 -0.6396
vn -0.5523 -0.7448 -0.3744
vn -0.4965 -0.7621 -0.4155
vn -0.6364 -0.7711 -0.0183
vn -0.4540 -0.8218 0.3442
vn -0.3149 -0.4150 0.8536
vn 0.4816 -0.8147 -0.3231
vn 0.5287 -0.6547 -0.5402
vn 0.3190 -0.7906 -0.5227
vn 0.0360 -0.3168 0.9478
vn 0.3191 -0.5637 0.7619
vn 0.4223 -0.4965 0.7584
usemtl None
s off
f 1/1/1 14/2/1 13/3/1
f 2/4/2 14/5/2 16/6/2
f 1/7/3 13/8/3 18/9/3
f 1/10/4 18/11/4 20/12/4
f 1/13/5 20/14/5 17/15/5
f 2/4/6 16/6/6 23/16/6
f 3/17/7 15/18/7 25/19/7
f 4/20/8 19/21/8 27/22/8
f 5/23/9 21/24/9 29/25/9
f 6/26/10 22/27/10 31/28/10
f 2/4/11 23/16/11 26/29/11
f 3/17/12 25/19/12 28/30/12
f 4/20/13 27/22/13 30/31/13
f 5/23/14 29/25/14 32/32/14
f 6/26/15 31/28/15 24/33/15
f 7/34/16 33/35/16 38/36/16
f 8/37/17 34/38/17 40/39/17
f 9/40/18 35/41/18 41/42/18
f 10/43/19 36/44/19 42/45/19
f 11/46/20 37/47/20 39/48/20
f 39/48/21 42/49/21 12/50/21
f 39/48/22 37/47/22 42/49/22
f 37/47/23 10/43/23 42/49/23
f 42/45/24 41/51/24 12/52/24
f 42/45/25 36/44/25 41/51/25
f 36/44/26 9/40/26 41/51/26
f 41/42/27 40/53/27 12/54/27
f 41/42/28 35/41/28 40/53/28
f 35/41/29 8/55/29 40/53/29
f 40/39/30 38/56/30 12/57/30
f 40/39/31 34/38/31 38/56/31
f 34/38/32 7/34/32 38/56/32
f 38/36/33 39/58/33 12/59/33
f 38/36/34 33/35/34 39/58/34
f 33/35/35 11/46/35 39/58/35
f 24/33/36 37/47/36 11/46/36
f 24/33/37 31/28/37 37/47/37
f 31/28/38 10/43/38 37/47/38
f 32/32/39 36/44/39 10/43/39
f 32/32/40 29/25/40 36/44/40
f 29/25/41 9/40/41 36/44/41
f 30/31/42 35/41/42 9/40/42
f 30/31/43 27/22/43 35/41/43
f 27/22/44 8/55/44 35/41/44
f 28/30/45 34/38/45 8/37/45
f 28/30/46 25/19/46 34/38/46
f 25/19/47 7/34/47 34/38/47
f 26/29/48 33/35/48 7/34/48
f 26/29/49 23/16/49 33/35/49
f 23/16/50 11/46/50 33/35/50
f 31/28/51 32/32/51 10/43/51
f 31/28/52 22/27/52 32/32/52
f 22/27/53 5/23/53 32/32/53
f 29/25/54 30/31/54 9/40/54
f 29/25/55 21/24/55 30/31/55
f 21/24/56 4/20/56 30/31/56
f 27/22/57 28/60/57 8/55/57
f 27/22/58 19/21/58 28/60/58
f 19/21/59 3/61/59 28/60/59
f 25/19/60 26/29/60 7/34/60
f 25/19/61 15/18/61 26/29/61
f 15/18/62 2/4/62 26/29/62
f 23/16/63 24/33/63 11/46/63
f 23/16/64 16/6/64 24/33/64
f 16/6/65 6/26/65 24/33/65
f 17/15/66 22/27/66 6/26/66
f 17/15/67 20/14/67 22/27/67
f 20/14/68 5/23/68 22/27/68
f 20/12/69 21/24/69 5/23/69
f 20/12/70 18/11/70 21/24/70
f 18/11/71 4/20/71 21/24/71
f 18/9/72 19/21/72 4/20/72
f 18/9/73 13/8/73 19/21/73
f 13/8/74 3/61/74 19/21/74
f 16/6/75 17/62/75 6/26/75
f 16/6/76 14/5/76 17/62/76
f 14/5/77 1/63/77 17/62/77
f 13/3/78 15/18/78 3/17/78
f 13/3/79 14/2/79 15/18/79
f 14/2/80 2/4/80 15/18/80
