# Blender v3.1.2 OBJ File: 'tree2-trunk.blend'
# www.blender.org
mtllib tree2-trunk.mtl
o Cylinder
v 0.118925 0.151182 -1.007448
v 0.012478 4.013155 -0.370982
v 0.868197 0.098073 -0.755313
v 0.218862 3.923376 -0.190816
v 1.128685 0.017323 0.000008
v 0.226832 3.936670 -0.000031
v 0.804913 0.254517 0.644808
v 0.177968 3.893751 0.176392
v 0.038822 0.098958 1.013978
v -0.106122 3.971357 0.284932
v -0.671238 0.104246 0.714775
v -0.153382 3.926494 0.175051
v -0.946270 0.124564 0.000319
v -0.288623 3.953634 -0.000024
v -0.630482 0.161188 -0.655836
v -0.353799 3.955559 -0.192048
v 0.220493 0.437506 -0.653109
v 0.218865 0.771656 -0.349947
v 0.332536 1.106950 -0.463913
v 0.131563 1.227169 -0.327095
v 0.105053 1.448942 -0.351443
v 0.068998 1.802330 -0.492120
v 0.036591 2.043452 -0.427164
v 0.055676 2.430043 -0.387484
v 0.036781 2.738894 -0.358159
v 0.313522 3.172455 -0.301197
v 0.172377 3.417768 -0.301850
v -0.174344 3.748257 -0.184066
v -0.010324 3.772734 -0.130480
v 0.380418 3.378280 -0.184942
v 0.405323 3.045804 -0.132333
v 0.253152 2.734475 -0.237524
v 0.416772 2.477743 -0.325403
v 0.313792 2.093661 -0.381919
v 0.495895 1.926821 -0.344783
v 0.506308 1.570856 -0.281103
v 0.431267 1.214548 -0.450449
v 0.702672 1.112531 -0.443564
v 0.447854 0.641454 -0.438433
v 0.444087 0.392665 -0.327452
v 0.080756 3.768038 0.000797
v 0.350547 3.458545 0.053905
v 0.526731 3.022247 0.137496
v 0.473500 2.758351 0.056164
v 0.448736 2.304446 -0.028989
v 0.447550 2.118246 -0.083023
v 0.592507 1.867075 -0.105195
v 0.747055 1.665015 -0.268432
v 0.616610 1.295760 -0.026576
v 0.846048 1.111692 -0.087657
v 0.695008 0.739740 0.000183
v 0.748092 0.438769 0.000062
v -0.012531 3.747181 0.129831
v 0.102877 3.489300 0.181121
v 0.486928 3.078613 0.270793
v 0.386403 2.795516 0.292055
v 0.432423 2.373729 0.311558
v 0.274265 1.996938 0.223303
v 0.376785 1.830930 0.254311
v 0.508299 1.489665 0.441863
v 0.604828 1.382191 0.254705
v 0.658319 1.106419 0.283597
v 0.733236 0.782619 0.472107
v 0.742775 0.535321 0.472940
v -0.121621 3.774356 0.184196
v 0.067805 3.512875 0.257666
v 0.199059 3.225617 0.344519
v 0.044921 2.850946 0.381761
v 0.051265 2.389495 0.427138
v 0.114000 2.096914 0.349820
v 0.220478 1.795859 0.451752
v 0.027119 1.427154 0.459545
v 0.187718 1.256618 0.443048
v 0.344571 1.105170 0.575619
v 0.210974 0.776324 0.571408
v 0.058953 0.397250 0.449244
v -0.293670 3.761916 0.130151
v -0.350148 3.378235 0.238388
v 0.094150 3.304633 0.214947
v -0.239884 2.740358 0.173798
v -0.231307 2.272884 0.147691
v -0.303856 2.054608 0.284570
v -0.088234 1.832621 0.304818
v -0.061396 1.626502 0.316309
v -0.169398 1.323492 0.420699
v -0.040668 1.106599 0.406868
v -0.152945 0.671771 0.261191
v -0.189288 0.409634 0.336559
v -0.311893 3.766944 -0.000057
v -0.340481 3.419686 0.000037
v -0.087402 3.154039 0.012937
v -0.143700 2.907270 -0.020963
v -0.264180 2.316356 -0.212137
v -0.382991 1.901840 -0.051908
v -0.425188 1.810770 0.064800
v -0.402414 1.598294 0.120627
v -0.365074 1.231893 0.075715
v -0.155227 1.118850 0.009998
v -0.511417 0.616695 0.000120
v -0.839369 0.326071 0.000056
v -0.261370 3.788010 -0.130420
v -0.247223 3.478884 -0.211814
v 0.039712 3.321869 -0.206064
v -0.073632 2.864117 -0.302533
v -0.174623 2.473042 -0.358936
v -0.192851 1.968951 -0.346025
v -0.117950 1.779484 -0.218738
v -0.052732 1.515581 -0.210602
v -0.110608 1.301248 -0.275987
v -0.039317 1.111603 -0.377583
v -0.427568 0.677161 -0.476208
v -0.478929 0.359716 -0.594939
vt 1.000000 0.958791
vt 1.000000 1.000000
vt 0.875000 1.000000
vt 0.875000 0.958791
vt 0.750000 1.000000
vt 0.750000 0.958791
vt 0.625000 1.000000
vt 0.625000 0.958791
vt 0.500000 1.000000
vt 0.500000 0.958791
vt 0.375000 1.000000
vt 0.375000 0.958791
vt 0.250000 1.000000
vt 0.250000 0.958791
vt 0.419706 0.419706
vt 0.250000 0.490000
vt 0.080294 0.419706
vt 0.010000 0.250000
vt 0.080294 0.080294
vt 0.250000 0.010000
vt 0.419706 0.080294
vt 0.490000 0.250000
vt 0.125000 1.000000
vt 0.125000 0.958791
vt 0.000000 1.000000
vt 0.000000 0.958791
vt 0.750000 0.490000
vt 0.919706 0.419706
vt 0.990000 0.250000
vt 0.919706 0.080294
vt 0.750000 0.010000
vt 0.580294 0.080294
vt 0.510000 0.250000
vt 0.580294 0.419706
vt 0.125000 0.500000
vt 0.125000 0.535714
vt 0.000000 0.535714
vt 0.000000 0.500000
vt 0.125000 0.574176
vt 0.000000 0.574176
vt 0.125000 0.612637
vt 0.000000 0.612637
vt 0.125000 0.651099
vt 0.000000 0.651099
vt 0.125000 0.689560
vt 0.000000 0.689561
vt 0.125000 0.728022
vt 0.000000 0.728022
vt 0.125000 0.766483
vt 0.000000 0.766484
vt 0.125000 0.804945
vt 0.000000 0.804945
vt 0.125000 0.843407
vt 0.000000 0.843407
vt 0.125000 0.881868
vt 0.000000 0.881868
vt 0.125000 0.920330
vt 0.000000 0.920330
vt 0.250000 0.500000
vt 0.250000 0.535714
vt 0.250000 0.574176
vt 0.250000 0.612637
vt 0.250000 0.651099
vt 0.250000 0.689560
vt 0.250000 0.728022
vt 0.250000 0.766483
vt 0.250000 0.804945
vt 0.250000 0.843407
vt 0.250000 0.881868
vt 0.250000 0.920330
vt 0.375000 0.500000
vt 0.375000 0.535714
vt 0.375000 0.574176
vt 0.375000 0.612637
vt 0.375000 0.651099
vt 0.375000 0.689560
vt 0.375000 0.728022
vt 0.375000 0.766484
vt 0.375000 0.804945
vt 0.375000 0.843407
vt 0.375000 0.881868
vt 0.375000 0.920330
vt 0.500000 0.500000
vt 0.500000 0.535714
vt 0.500000 0.574176
vt 0.500000 0.612637
vt 0.500000 0.651099
vt 0.500000 0.689560
vt 0.500000 0.728022
vt 0.500000 0.766484
vt 0.500000 0.804945
vt 0.500000 0.843407
vt 0.500000 0.881868
vt 0.500000 0.920330
vt 0.625000 0.500000
vt 0.625000 0.535714
vt 0.625000 0.574176
vt 0.625000 0.612637
vt 0.625000 0.651099
vt 0.625000 0.689560
vt 0.625000 0.728022
vt 0.625000 0.766484
vt 0.625000 0.804945
vt 0.625000 0.843407
vt 0.625000 0.881868
vt 0.625000 0.920330
vt 0.750000 0.500000
vt 0.750000 0.535714
vt 0.750000 0.574176
vt 0.750000 0.612637
vt 0.750000 0.651099
vt 0.750000 0.689560
vt 0.750000 0.728022
vt 0.750000 0.766484
vt 0.750000 0.804945
vt 0.750000 0.843407
vt 0.750000 0.881868
vt 0.750000 0.920330
vt 0.875000 0.500000
vt 0.875000 0.535714
vt 0.875000 0.574176
vt 0.875000 0.612637
vt 0.875000 0.651099
vt 0.875000 0.689560
vt 0.875000 0.728022
vt 0.875000 0.766484
vt 0.875000 0.804945
vt 0.875000 0.843407
vt 0.875000 0.881868
vt 0.875000 0.920330
vt 1.000000 0.500000
vt 1.000000 0.535714
vt 1.000000 0.574176
vt 1.000000 0.612637
vt 1.000000 0.651099
vt 1.000000 0.689561
vt 1.000000 0.728022
vt 1.000000 0.766484
vt 1.000000 0.804945
vt 1.000000 0.843407
vt 1.000000 0.881868
vt 1.000000 0.920330
vn 0.2957 -0.6895 -0.6612
vn 0.6222 -0.7640 -0.1709
vn 0.6638 -0.7314 0.1562
vn 0.2181 -0.4921 0.8428
vn -0.5847 -0.0735 0.8079
vn -0.8295 0.3285 0.4516
vn 0.0550 0.9939 0.0959
vn -0.9820 -0.1863 0.0313
vn -0.4091 -0.3859 -0.8269
vn -0.0112 -0.9999 0.0042
vn -0.2248 0.6989 -0.6790
vn -0.0273 0.5448 -0.8381
vn 0.0434 -0.0482 -0.9979
vn -0.1177 0.5385 -0.8343
vn -0.3969 0.1142 -0.9107
vn -0.7542 -0.2682 -0.5993
vn -0.5907 -0.2579 -0.7646
vn -0.2344 0.0390 -0.9714
vn -0.1720 0.1396 -0.9752
vn -0.1947 0.2485 -0.9489
vn -0.3447 -0.3804 -0.8582
vn -0.2390 0.1633 -0.9572
vn -0.7514 0.5424 -0.3757
vn -0.7893 0.5469 -0.2793
vn -0.7674 0.6260 -0.1389
vn -0.7683 -0.4786 -0.4251
vn -0.7390 0.1508 -0.6567
vn -0.6866 -0.2199 -0.6930
vn -0.6109 -0.5589 -0.5607
vn -0.8504 0.0279 -0.5253
vn -0.9223 0.2762 -0.2705
vn -0.9160 0.2747 -0.2924
vn -0.4855 -0.6462 -0.5888
vn -0.9254 0.0666 -0.3732
vn -0.4647 0.8089 0.3603
vn -0.5028 0.4332 0.7480
vn -0.7834 0.3014 0.5436
vn -0.6164 -0.7131 0.3340
vn -0.7180 0.1364 0.6825
vn -0.5430 0.0702 0.8368
vn -0.7759 -0.1632 0.6094
vn -0.9386 0.3304 0.0991
vn -0.9906 0.1187 -0.0681
vn -0.8887 0.4085 0.2080
vn -0.4028 -0.8393 0.3652
vn -0.9919 0.1211 0.0383
vn -0.1816 0.8693 0.4598
vn -0.5761 0.1101 0.8099
vn -0.5395 0.0084 0.8420
vn -0.2363 0.1274 0.9633
vn -0.2660 0.1473 0.9527
vn -0.5103 0.1761 0.8418
vn -0.2803 0.0513 0.9585
vn -0.4591 0.1116 0.8814
vn -0.6528 0.0052 0.7575
vn -0.6338 0.3266 0.7012
vn -0.2447 -0.2245 0.9433
vn -0.1769 0.2329 0.9563
vn -0.0118 0.7858 0.6184
vn 0.0860 -0.2083 0.9743
vn 0.4126 0.2130 0.8856
vn 0.4163 0.4936 0.7636
vn 0.2820 -0.3834 0.8795
vn 0.2789 0.2321 0.9318
vn 0.6779 0.4653 0.5692
vn 0.3439 -0.2714 0.8989
vn 0.2801 0.0868 0.9560
vn 0.2483 -0.0100 0.9686
vn 0.5746 0.5722 0.5852
vn 0.6673 0.5198 0.5334
vn 0.8338 0.5459 0.0825
vn 0.9922 0.1133 -0.0513
vn 0.9837 -0.0377 0.1761
vn 0.8414 0.5041 0.1946
vn 0.9696 -0.0413 0.2413
vn 0.7936 0.4368 0.4235
vn 0.7253 0.4415 0.5282
vn 0.9157 -0.3205 0.2426
vn 0.9846 0.0108 0.1746
vn 0.8805 -0.2888 0.3758
vn 0.6494 0.5392 0.5362
vn 0.5331 0.4890 0.6904
vn 0.5581 0.7861 -0.2658
vn 0.8149 -0.0435 -0.5780
vn 0.8272 -0.4372 -0.3530
vn 0.4535 0.8467 -0.2784
vn 0.7410 -0.2712 -0.6143
vn 0.5510 0.3017 -0.7781
vn 0.7595 0.5839 -0.2868
vn 0.9489 -0.1165 -0.2933
vn 0.9104 0.2568 -0.3242
vn 0.8471 -0.1359 -0.5137
vn 0.9566 0.2155 -0.1962
vn 0.7055 0.6625 -0.2519
vn 0.3545 0.8147 -0.4589
vn 0.5259 0.2646 -0.8083
vn -0.1303 -0.0863 -0.9877
vn -0.1445 0.2523 -0.9568
vn -0.1118 0.2506 -0.9616
vn 0.3138 -0.2438 -0.9177
vn 0.2177 0.1799 -0.9593
vn 0.1502 0.0990 -0.9837
vn 0.2707 0.2783 -0.9215
vn 0.6258 -0.1960 -0.7549
vn 0.7237 0.1458 -0.6746
vn 0.3660 0.5506 -0.7503
usemtl None
s off
f 28/1/1 2/2/1 4/3/1 29/4/1
f 29/4/2 4/3/2 6/5/2 41/6/2
f 41/6/3 6/5/3 8/7/3 53/8/3
f 53/8/4 8/7/4 10/9/4 65/10/4
f 65/10/5 10/9/5 12/11/5 77/12/5
f 77/12/6 12/11/6 14/13/6 89/14/6
f 4/15/7 2/16/7 16/17/7 14/18/7 12/19/7 10/20/7 8/21/7 6/22/7
f 89/14/8 14/13/8 16/23/8 101/24/8
f 101/24/9 16/23/9 2/25/9 28/26/9
f 1/27/10 3/28/10 5/29/10 7/30/10 9/31/10 11/32/10 13/33/10 15/34/10
f 15/35/11 112/36/11 17/37/11 1/38/11
f 112/36/12 111/39/12 18/40/12 17/37/12
f 111/39/13 110/41/13 19/42/13 18/40/13
f 110/41/14 109/43/14 20/44/14 19/42/14
f 109/43/15 108/45/15 21/46/15 20/44/15
f 108/45/16 107/47/16 22/48/16 21/46/16
f 107/47/17 106/49/17 23/50/17 22/48/17
f 106/49/18 105/51/18 24/52/18 23/50/18
f 105/51/19 104/53/19 25/54/19 24/52/19
f 104/53/20 103/55/20 26/56/20 25/54/20
f 103/55/21 102/57/21 27/58/21 26/56/21
f 102/57/22 101/24/22 28/26/22 27/58/22
f 13/59/23 100/60/23 112/36/23 15/35/23
f 100/60/24 99/61/24 111/39/24 112/36/24
f 99/61/25 98/62/25 110/41/25 111/39/25
f 98/62/26 97/63/26 109/43/26 110/41/26
f 97/63/27 96/64/27 108/45/27 109/43/27
f 96/64/28 95/65/28 107/47/28 108/45/28
f 95/65/29 94/66/29 106/49/29 107/47/29
f 94/66/30 93/67/30 105/51/30 106/49/30
f 93/67/31 92/68/31 104/53/31 105/51/31
f 92/68/32 91/69/32 103/55/32 104/53/32
f 91/69/33 90/70/33 102/57/33 103/55/33
f 90/70/34 89/14/34 101/24/34 102/57/34
f 11/71/35 88/72/35 100/60/35 13/59/35
f 88/72/36 87/73/36 99/61/36 100/60/36
f 87/73/37 86/74/37 98/62/37 99/61/37
f 86/74/38 85/75/38 97/63/38 98/62/38
f 85/75/39 84/76/39 96/64/39 97/63/39
f 84/76/40 83/77/40 95/65/40 96/64/40
f 83/77/41 82/78/41 94/66/41 95/65/41
f 82/78/42 81/79/42 93/67/42 94/66/42
f 81/79/43 80/80/43 92/68/43 93/67/43
f 80/80/44 79/81/44 91/69/44 92/68/44
f 79/81/45 78/82/45 90/70/45 91/69/45
f 78/82/46 77/12/46 89/14/46 90/70/46
f 9/83/47 76/84/47 88/72/47 11/71/47
f 76/84/48 75/85/48 87/73/48 88/72/48
f 75/85/49 74/86/49 86/74/49 87/73/49
f 74/86/50 73/87/50 85/75/50 86/74/50
f 73/87/51 72/88/51 84/76/51 85/75/51
f 72/88/52 71/89/52 83/77/52 84/76/52
f 71/89/53 70/90/53 82/78/53 83/77/53
f 70/90/54 69/91/54 81/79/54 82/78/54
f 69/91/55 68/92/55 80/80/55 81/79/55
f 68/92/56 67/93/56 79/81/56 80/80/56
f 67/93/57 66/94/57 78/82/57 79/81/57
f 66/94/58 65/10/58 77/12/58 78/82/58
f 7/95/59 64/96/59 76/84/59 9/83/59
f 64/96/60 63/97/60 75/85/60 76/84/60
f 63/97/61 62/98/61 74/86/61 75/85/61
f 62/98/62 61/99/62 73/87/62 74/86/62
f 61/99/63 60/100/63 72/88/63 73/87/63
f 60/100/64 59/101/64 71/89/64 72/88/64
f 59/101/65 58/102/65 70/90/65 71/89/65
f 58/102/66 57/103/66 69/91/66 70/90/66
f 57/103/67 56/104/67 68/92/67 69/91/67
f 56/104/68 55/105/68 67/93/68 68/92/68
f 55/105/69 54/106/69 66/94/69 67/93/69
f 54/106/70 53/8/70 65/10/70 66/94/70
f 5/107/71 52/108/71 64/96/71 7/95/71
f 52/108/72 51/109/72 63/97/72 64/96/72
f 51/109/73 50/110/73 62/98/73 63/97/73
f 50/110/74 49/111/74 61/99/74 62/98/74
f 49/111/75 48/112/75 60/100/75 61/99/75
f 48/112/76 47/113/76 59/101/76 60/100/76
f 47/113/77 46/114/77 58/102/77 59/101/77
f 46/114/78 45/115/78 57/103/78 58/102/78
f 45/115/79 44/116/79 56/104/79 57/103/79
f 44/116/80 43/117/80 55/105/80 56/104/80
f 43/117/81 42/118/81 54/106/81 55/105/81
f 42/118/82 41/6/82 53/8/82 54/106/82
f 3/119/83 40/120/83 52/108/83 5/107/83
f 40/120/84 39/121/84 51/109/84 52/108/84
f 39/121/85 38/122/85 50/110/85 51/109/85
f 38/122/86 37/123/86 49/111/86 50/110/86
f 37/123/87 36/124/87 48/112/87 49/111/87
f 36/124/88 35/125/88 47/113/88 48/112/88
f 35/125/89 34/126/89 46/114/89 47/113/89
f 34/126/90 33/127/90 45/115/90 46/114/90
f 33/127/91 32/128/91 44/116/91 45/115/91
f 32/128/92 31/129/92 43/117/92 44/116/92
f 31/129/93 30/130/93 42/118/93 43/117/93
f 30/130/94 29/4/94 41/6/94 42/118/94
f 1/131/95 17/132/95 40/120/95 3/119/95
f 17/132/96 18/133/96 39/121/96 40/120/96
f 18/133/97 19/134/97 38/122/97 39/121/97
f 19/134/98 20/135/98 37/123/98 38/122/98
f 20/135/99 21/136/99 36/124/99 37/123/99
f 21/136/100 22/137/100 35/125/100 36/124/100
f 22/137/101 23/138/101 34/126/101 35/125/101
f 23/138/102 24/139/102 33/127/102 34/126/102
f 24/139/103 25/140/103 32/128/103 33/127/103
f 25/140/104 26/141/104 31/129/104 32/128/104
f 26/141/105 27/142/105 30/130/105 31/129/105
f 27/142/106 28/1/106 29/4/106 30/130/106
